<?xml version="1.0" standalone="no"?>
<!DOCTYPE svg PUBLIC "-//W3C//DTD SVG 1.1//EN" "http://www.w3.org/Graphics/SVG/1.1/DTD/svg11.dtd" >
<svg xmlns="http://www.w3.org/2000/svg" xmlns:svg="http://www.w3.org/2000/svg" xmlns:xlink="http://www.w3.org/1999/xlink" viewBox="0 0 1024 1024"><path d="M830.57 956.24H956.18L941.94 898.76L871.23 948.73L943.09 913.04L869.57 879.95L869.58 878.11L971.31 962.64L882.95 921.95L894.41 893.25V48.81L999.98 40.42L1020.51 83.69L928.63 126.03V858.7L968.47 904.27L992.5 894.35L925.2 938.99L1014.76 928.56L929.46 1032.55L903.96 937.7L917.49 995.64L957.43 991.8L907.6 965.74L858.37 1017V992.17L839.75 912.02ZM445.33 785.33L535.04 857.42L550.5 870.15L431.84 797.94L434.32 829.73L423.34 873.09L461.55 921.29L410.81 990.35L339.39 993.12L373.59 1006.12L321.6 1021.15L357.88 930.03L451.4 808.2L428.9 838.9L481.82 839.92L402.98 767.01L483.95 821.79ZM162.77 956.38L128.03 954.94L125.36 929.31L199.96 878.52V854.72L119.02 809.88L163.1 882.8L179.4 805.98L155.02 730.63L191.43 766.48L137.2 798.53L165.83 740.28L143.28 803.41L75.15 709.14L58.86 674.19L32.46 757.67L131.12 745.14L118.29 683.17L71.05 701.11L167.27 782.88L201.24 687.17L270.11 502.02L388.94 359.48L334.65 291.98L273.01 717.92L177.7 814.99L260 743.34L203.29 747.9L137.21 852.8L227.97 869.56L203 823L242.99 822.28L255.78 962.01V997.76L241.71 1002.62ZM570.36 943.81L625.47 815.67L556.1 842.25L579.06 859.04L521.87 848.92L573.94 837.27L530.49 832.82L602.58 744.52L600.88 778.12L556.4 750.76L627.21 842.1L641.8 802.56L678.86 885.19L643.21 868.68L684.68 975.94L705.77 996.62L637.46 938.22L604.15 974.75L576.89 910.27ZM763.25 194.31L883.8 142.47L760.37 168.9V769.32L743.39 881.54V188.22ZM417.78 113.79H574.27L613.38 96.55L681.88 156.69L645.91 159.33V741.42L647.59 789.55V712.19H432.06V774.18L328.38 813.08V76.89ZM408.88 550.97V658.81H636.04V561.34ZM429.9 400.41V479.12H585.77V355.19ZM139.67 379.4L184.75 409.46L198.13 390.1L190.41 447.41L180.67 406.33L84.66 314.96L122.7 367.53L4.43 388.09L46.43 312L152.69 338.04L155.87 309.3L110.62 382.85L127.22 411.36L203.96 372.7L239.75 420.72L223.92 424.22L211.23 380.58L267.31 472.58L171.17 432.85L202.29 482.29L233.39 436.93L187.85 445.94L149.19 421.18ZM474.07 200.16V356.41H591.13V117.87ZM190.57 156.39L240.55 142.37L263.61 135.5L205.62 138.08L158.11 117.53L218.49 133.38L132.74 103.58L164.28 114.07L85.79 77.59L144.77 137.42L146.2 90.2L181.95 56.36L155.72 70.41L192.77 93.97L248.35 114.21L217.71 186.96L213.99 126.19L296.97 212.28L254.01 139.47L255.59 157.83L221.39 212.6L235.73 283.53L248.48 255.13L250.39 200.25Z" fill="black"></path></svg>