<?xml version="1.0" standalone="no"?>
<!DOCTYPE svg PUBLIC "-//W3C//DTD SVG 1.1//EN" "http://www.w3.org/Graphics/SVG/1.1/DTD/svg11.dtd" >
<svg xmlns="http://www.w3.org/2000/svg" xmlns:svg="http://www.w3.org/2000/svg" xmlns:xlink="http://www.w3.org/1999/xlink" viewBox="0 0 1024 1024"><path d="M771.0 915.5H878.0L885.0 914.5L890.0 913.5L895.0 911.5L896.0 910.5L897.0 909.5L898.0 908.5L899.0 904.5L900.0 899.5V44.5L965.0 54.5L981.0 65.5L965.0 75.5V893.5L964.0 906.5L961.0 920.5L957.0 933.5L951.0 945.5L942.0 956.5L931.0 965.5L919.0 972.5L906.0 976.5L892.0 978.5L878.0 979.5V947.5L771.0 931.5ZM484.0 772.5 496.0 788.5 474.0 792.5 462.0 817.5 435.0 860.5 420.0 882.5 386.0 923.5 367.0 942.5 346.0 961.5 324.0 979.5 317.0 972.5 370.0 880.5 392.0 836.5 402.0 815.5 410.0 793.5 423.0 752.5 426.0 743.5ZM167.0 973.5 145.0 962.5 137.0 939.5 140.0 901.5V866.5L138.0 835.5L133.0 807.5L126.0 782.5L120.0 768.5L117.0 767.5L118.0 763.5L117.0 759.5L104.0 739.5L90.0 722.5L72.0 705.5L50.0 689.5L53.0 680.5L82.0 687.5L108.0 698.5L131.0 716.5L136.0 721.5L254.0 462.5L323.0 326.5L332.0 330.5L208.0 681.5L188.0 746.5L182.0 768.5L180.0 782.5L176.0 781.5L181.0 792.5L191.0 825.5L197.0 861.5L201.0 901.5V944.5L190.0 965.5ZM591.0 868.5 587.0 854.5 581.0 840.5 575.0 825.5 559.0 796.5 541.0 767.5 530.0 753.5 536.0 746.5 582.0 777.5 595.0 789.5 620.0 815.5 632.0 830.5 642.0 845.5 660.0 876.5 658.0 901.5 640.0 918.5 615.0 916.5 599.0 898.5 596.0 883.5ZM795.0 135.5 811.0 146.5 795.0 155.5V769.5L731.0 802.5V124.5ZM418.0 117.5H574.0L606.0 90.5L665.0 138.5L638.0 160.5V699.5L574.0 732.5V699.5H418.0V716.5L354.0 748.5V84.5ZM418.0 504.5V678.5H574.0V504.5ZM418.0 321.5V483.5H574.0V321.5ZM139.0 416.5 132.0 405.5 125.0 394.5 115.0 383.5 104.0 372.5 76.0 350.5 61.0 339.5 43.0 329.5 46.0 320.5 86.0 330.5 105.0 336.5 123.0 343.5 139.0 351.5 155.0 359.5 169.0 369.5 182.0 381.5 194.0 393.5 204.0 406.5 206.0 431.5 191.0 450.5 166.0 452.5 147.0 436.5 144.0 426.5ZM418.0 138.5V300.5H574.0V138.5ZM208.0 169.5 201.0 158.5 193.0 147.5 184.0 136.5 173.0 125.5 148.0 103.5 133.0 91.5 116.0 82.5 120.0 73.5 139.0 79.5 158.0 83.5 176.0 89.5 193.0 96.5 209.0 103.5 224.0 112.5 238.0 122.5 251.0 133.5 262.0 145.5 274.0 159.5 276.0 183.5 261.0 203.5 237.0 205.5 217.0 190.5 213.0 180.5Z" fill="black"></path></svg>